{
	"patcher" : 	{
		"fileversion" : 1,
		"appversion" : 		{
			"major" : 5,
			"minor" : 1,
			"revision" : 9
		}
,
		"rect" : [ 0.0, 44.0, 918.0, 307.0 ],
		"bglocked" : 0,
		"defrect" : [ 0.0, 44.0, 918.0, 307.0 ],
		"openrect" : [ 0.0, 0.0, 0.0, 0.0 ],
		"openinpresentation" : 0,
		"default_fontsize" : 14.0,
		"default_fontface" : 0,
		"default_fontname" : "Arial",
		"gridonopen" : 0,
		"gridsize" : [ 15.0, 15.0 ],
		"gridsnaponopen" : 0,
		"toolbarvisible" : 1,
		"boxanimatetime" : 200,
		"imprint" : 0,
		"enablehscroll" : 1,
		"enablevscroll" : 1,
		"devicewidth" : 0.0,
		"boxes" : [ 			{
				"box" : 				{
					"fontname" : "Arial",
					"fontsize" : 14.0,
					"id" : "obj-96",
					"maxclass" : "newobj",
					"numinlets" : 0,
					"numoutlets" : 0,
					"patcher" : 					{
						"fileversion" : 1,
						"appversion" : 						{
							"major" : 5,
							"minor" : 1,
							"revision" : 9
						}
,
						"rect" : [ -2.0, 44.0, 972.0, 425.0 ],
						"bglocked" : 0,
						"defrect" : [ -2.0, 44.0, 972.0, 425.0 ],
						"openrect" : [ 0.0, 0.0, 0.0, 0.0 ],
						"openinpresentation" : 0,
						"default_fontsize" : 14.0,
						"default_fontface" : 0,
						"default_fontname" : "Arial",
						"gridonopen" : 0,
						"gridsize" : [ 15.0, 15.0 ],
						"gridsnaponopen" : 0,
						"toolbarvisible" : 1,
						"boxanimatetime" : 200,
						"imprint" : 0,
						"enablehscroll" : 1,
						"enablevscroll" : 1,
						"devicewidth" : 0.0,
						"boxes" : [ 							{
								"box" : 								{
									"fontname" : "Arial",
									"fontsize" : 12.0,
									"id" : "obj-48",
									"maxclass" : "newobj",
									"numinlets" : 2,
									"numoutlets" : 1,
									"outlettype" : [ "float" ],
									"patching_rect" : [ 440.0, 300.0, 53.0, 20.0 ],
									"text" : "pow 0.1"
								}

							}
, 							{
								"box" : 								{
									"fontname" : "Arial",
									"fontsize" : 12.0,
									"id" : "obj-49",
									"maxclass" : "newobj",
									"numinlets" : 5,
									"numoutlets" : 1,
									"outlettype" : [ "" ],
									"patching_rect" : [ 440.0, 330.0, 90.0, 20.0 ],
									"text" : "zmap 0 1 0.8 1"
								}

							}
, 							{
								"box" : 								{
									"fontname" : "Arial",
									"fontsize" : 12.0,
									"id" : "obj-50",
									"maxclass" : "newobj",
									"numinlets" : 5,
									"numoutlets" : 1,
									"outlettype" : [ "" ],
									"patching_rect" : [ 440.0, 270.0, 90.0, 20.0 ],
									"text" : "zmap 0.8 1 0 1"
								}

							}
, 							{
								"box" : 								{
									"fontname" : "Arial",
									"fontsize" : 12.0,
									"id" : "obj-51",
									"maxclass" : "newobj",
									"numinlets" : 1,
									"numoutlets" : 1,
									"outlettype" : [ "float" ],
									"patching_rect" : [ 275.0, 300.0, 34.0, 20.0 ],
									"text" : "atan"
								}

							}
, 							{
								"box" : 								{
									"fontname" : "Arial",
									"fontsize" : 12.0,
									"id" : "obj-52",
									"maxclass" : "newobj",
									"numinlets" : 5,
									"numoutlets" : 1,
									"outlettype" : [ "" ],
									"patching_rect" : [ 275.0, 330.0, 143.0, 20.0 ],
									"text" : "zmap 0 0.785398 0.6 0.8"
								}

							}
, 							{
								"box" : 								{
									"fontname" : "Arial",
									"fontsize" : 12.0,
									"id" : "obj-57",
									"maxclass" : "newobj",
									"numinlets" : 5,
									"numoutlets" : 1,
									"outlettype" : [ "" ],
									"patching_rect" : [ 275.0, 270.0, 100.0, 20.0 ],
									"text" : "zmap 0.6 0.8 0 1"
								}

							}
, 							{
								"box" : 								{
									"fontname" : "Arial",
									"fontsize" : 12.0,
									"id" : "obj-59",
									"maxclass" : "newobj",
									"numinlets" : 1,
									"numoutlets" : 1,
									"outlettype" : [ "float" ],
									"patching_rect" : [ 110.0, 300.0, 26.0, 20.0 ],
									"text" : "sin"
								}

							}
, 							{
								"box" : 								{
									"fontname" : "Arial",
									"fontsize" : 12.0,
									"id" : "obj-60",
									"maxclass" : "newobj",
									"numinlets" : 5,
									"numoutlets" : 1,
									"outlettype" : [ "" ],
									"patching_rect" : [ 110.0, 330.0, 100.0, 20.0 ],
									"text" : "zmap 0 1 0.3 0.6"
								}

							}
, 							{
								"box" : 								{
									"fontname" : "Arial",
									"fontsize" : 12.0,
									"id" : "obj-61",
									"maxclass" : "newobj",
									"numinlets" : 5,
									"numoutlets" : 1,
									"outlettype" : [ "" ],
									"patching_rect" : [ 110.0, 270.0, 143.0, 20.0 ],
									"text" : "zmap 0.3 0.6 0 1.570796"
								}

							}
, 							{
								"box" : 								{
									"fontname" : "Arial",
									"fontsize" : 12.0,
									"id" : "obj-62",
									"maxclass" : "newobj",
									"numinlets" : 2,
									"numoutlets" : 1,
									"outlettype" : [ "float" ],
									"patching_rect" : [ 12.0, 300.0, 49.0, 20.0 ],
									"text" : "pow 10"
								}

							}
, 							{
								"box" : 								{
									"fontname" : "Arial",
									"fontsize" : 12.0,
									"id" : "obj-63",
									"maxclass" : "newobj",
									"numinlets" : 5,
									"numoutlets" : 1,
									"outlettype" : [ "" ],
									"patching_rect" : [ 12.0, 330.0, 90.0, 20.0 ],
									"text" : "zmap 0 1 0 0.3"
								}

							}
, 							{
								"box" : 								{
									"fontname" : "Arial",
									"fontsize" : 12.0,
									"id" : "obj-66",
									"maxclass" : "newobj",
									"numinlets" : 5,
									"numoutlets" : 1,
									"outlettype" : [ "" ],
									"patching_rect" : [ 12.0, 270.0, 90.0, 20.0 ],
									"text" : "zmap 0 0.3 0 1"
								}

							}
, 							{
								"box" : 								{
									"fontname" : "Arial",
									"fontsize" : 12.0,
									"id" : "obj-67",
									"maxclass" : "newobj",
									"numinlets" : 6,
									"numoutlets" : 6,
									"outlettype" : [ "float", "float", "float", "float", "float", "float" ],
									"patching_rect" : [ 12.0, 225.0, 158.0, 20.0 ],
									"text" : "sadam.split 0. 0.3 0.6 0.8 1."
								}

							}
, 							{
								"box" : 								{
									"floatoutput" : 1,
									"id" : "obj-75",
									"maxclass" : "slider",
									"numinlets" : 1,
									"numoutlets" : 1,
									"outlettype" : [ "" ],
									"patching_rect" : [ 110.0, 390.0, 332.0, 21.0 ],
									"size" : 1.0
								}

							}
, 							{
								"box" : 								{
									"fontname" : "Arial",
									"fontsize" : 12.0,
									"id" : "obj-89",
									"maxclass" : "newobj",
									"numinlets" : 0,
									"numoutlets" : 1,
									"outlettype" : [ "" ],
									"patching_rect" : [ 12.0, 195.0, 55.0, 20.0 ],
									"text" : "r master"
								}

							}
, 							{
								"box" : 								{
									"fontname" : "Arial",
									"fontsize" : 12.0,
									"id" : "obj-93",
									"maxclass" : "comment",
									"numinlets" : 1,
									"numoutlets" : 0,
									"patching_rect" : [ 542.0, 21.0, 150.0, 20.0 ],
									"text" : "Circular mapping"
								}

							}
, 							{
								"box" : 								{
									"fontname" : "Arial",
									"fontsize" : 12.0,
									"id" : "obj-88",
									"maxclass" : "newobj",
									"numinlets" : 6,
									"numoutlets" : 1,
									"outlettype" : [ "" ],
									"patching_rect" : [ 483.0, 54.0, 105.0, 20.0 ],
									"text" : "scale 0. 1. 0. 7.85"
								}

							}
, 							{
								"box" : 								{
									"fontname" : "Arial",
									"fontsize" : 12.0,
									"id" : "obj-87",
									"maxclass" : "newobj",
									"numinlets" : 0,
									"numoutlets" : 1,
									"outlettype" : [ "" ],
									"patching_rect" : [ 483.0, 22.0, 55.0, 20.0 ],
									"text" : "r master"
								}

							}
, 							{
								"box" : 								{
									"fontname" : "Arial",
									"fontsize" : 12.0,
									"id" : "obj-77",
									"maxclass" : "comment",
									"numinlets" : 1,
									"numoutlets" : 0,
									"patching_rect" : [ 923.0, 143.0, 42.0, 20.0 ],
									"text" : "6.28"
								}

							}
, 							{
								"box" : 								{
									"fontname" : "Arial",
									"fontsize" : 12.0,
									"id" : "obj-78",
									"maxclass" : "comment",
									"numinlets" : 1,
									"numoutlets" : 0,
									"patching_rect" : [ 856.0, 199.0, 42.0, 20.0 ],
									"text" : "4.71"
								}

							}
, 							{
								"box" : 								{
									"fontname" : "Arial",
									"fontsize" : 12.0,
									"id" : "obj-79",
									"maxclass" : "comment",
									"numinlets" : 1,
									"numoutlets" : 0,
									"patching_rect" : [ 881.0, 87.0, 42.0, 20.0 ],
									"text" : "1.57"
								}

							}
, 							{
								"box" : 								{
									"fontname" : "Arial",
									"fontsize" : 12.0,
									"id" : "obj-80",
									"maxclass" : "comment",
									"numinlets" : 1,
									"numoutlets" : 0,
									"patching_rect" : [ 791.0, 143.0, 39.0, 20.0 ],
									"text" : "3.14"
								}

							}
, 							{
								"box" : 								{
									"floatoutput" : 1,
									"id" : "obj-81",
									"maxclass" : "slider",
									"min" : 1.57,
									"numinlets" : 1,
									"numoutlets" : 1,
									"outlettype" : [ "" ],
									"patching_rect" : [ 483.0, 81.0, 332.0, 22.0 ],
									"size" : 6.28
								}

							}
, 							{
								"box" : 								{
									"id" : "obj-82",
									"maxclass" : "pictslider",
									"numinlets" : 2,
									"numoutlets" : 2,
									"outlettype" : [ "int", "int" ],
									"patching_rect" : [ 831.0, 115.0, 92.0, 84.0 ],
									"rightvalue" : 100,
									"topvalue" : 100
								}

							}
, 							{
								"box" : 								{
									"fontname" : "Arial",
									"fontsize" : 12.0,
									"id" : "obj-40",
									"maxclass" : "newobj",
									"numinlets" : 6,
									"numoutlets" : 1,
									"outlettype" : [ "" ],
									"patching_rect" : [ 483.0, 169.0, 116.0, 20.0 ],
									"text" : "scale -50. 50. 0 100"
								}

							}
, 							{
								"box" : 								{
									"fontname" : "Arial",
									"fontsize" : 12.0,
									"id" : "obj-83",
									"maxclass" : "newobj",
									"numinlets" : 6,
									"numoutlets" : 1,
									"outlettype" : [ "" ],
									"patching_rect" : [ 605.0, 169.0, 116.0, 20.0 ],
									"text" : "scale -50. 50. 0 100"
								}

							}
, 							{
								"box" : 								{
									"fontname" : "Arial",
									"fontsize" : 12.0,
									"id" : "obj-84",
									"maxclass" : "newobj",
									"numinlets" : 1,
									"numoutlets" : 2,
									"outlettype" : [ "float", "float" ],
									"patching_rect" : [ 483.0, 115.0, 41.0, 20.0 ],
									"text" : "t 40. f"
								}

							}
, 							{
								"box" : 								{
									"fontname" : "Arial",
									"fontsize" : 12.0,
									"id" : "obj-85",
									"maxclass" : "newobj",
									"numinlets" : 2,
									"numoutlets" : 2,
									"outlettype" : [ "float", "float" ],
									"patching_rect" : [ 483.0, 141.0, 53.0, 20.0 ],
									"text" : "poltocar"
								}

							}
, 							{
								"box" : 								{
									"fontname" : "Arial",
									"fontsize" : 12.0,
									"id" : "obj-86",
									"maxclass" : "newobj",
									"numinlets" : 2,
									"numoutlets" : 1,
									"outlettype" : [ "" ],
									"patching_rect" : [ 483.0, 197.0, 50.0, 20.0 ],
									"text" : "pak 0 0"
								}

							}
, 							{
								"box" : 								{
									"id" : "obj-18",
									"maxclass" : "multislider",
									"numinlets" : 1,
									"numoutlets" : 2,
									"outlettype" : [ "", "" ],
									"patching_rect" : [ 366.0, 115.0, 77.0, 74.0 ],
									"setminmax" : [ 0.0, 1.0 ],
									"setstyle" : 2
								}

							}
, 							{
								"box" : 								{
									"fontname" : "Arial",
									"fontsize" : 12.0,
									"id" : "obj-41",
									"maxclass" : "newobj",
									"numinlets" : 6,
									"numoutlets" : 1,
									"outlettype" : [ "" ],
									"patching_rect" : [ 11.0, 54.0, 92.0, 20.0 ],
									"text" : "scale 0. 1. 0. 3."
								}

							}
, 							{
								"box" : 								{
									"fontname" : "Arial",
									"fontsize" : 12.0,
									"id" : "obj-36",
									"maxclass" : "comment",
									"numinlets" : 1,
									"numoutlets" : 0,
									"patching_rect" : [ 74.0, 23.0, 101.0, 20.0 ],
									"text" : "Re-scale & Wrap"
								}

							}
, 							{
								"box" : 								{
									"fontname" : "Arial",
									"fontsize" : 12.0,
									"id" : "obj-37",
									"maxclass" : "newobj",
									"numinlets" : 2,
									"numoutlets" : 1,
									"outlettype" : [ "int" ],
									"patching_rect" : [ 11.0, 83.0, 35.0, 20.0 ],
									"text" : "% 1."
								}

							}
, 							{
								"box" : 								{
									"floatoutput" : 1,
									"id" : "obj-38",
									"maxclass" : "slider",
									"numinlets" : 1,
									"numoutlets" : 1,
									"outlettype" : [ "" ],
									"patching_rect" : [ 11.0, 115.0, 332.0, 21.0 ],
									"size" : 1.0
								}

							}
, 							{
								"box" : 								{
									"fontname" : "Arial",
									"fontsize" : 12.0,
									"id" : "obj-39",
									"maxclass" : "newobj",
									"numinlets" : 0,
									"numoutlets" : 1,
									"outlettype" : [ "" ],
									"patching_rect" : [ 11.0, 22.0, 55.0, 20.0 ],
									"text" : "r master"
								}

							}
 ],
						"lines" : [ 							{
								"patchline" : 								{
									"destination" : [ "obj-38", 0 ],
									"hidden" : 0,
									"midpoints" : [  ],
									"source" : [ "obj-37", 0 ]
								}

							}
, 							{
								"patchline" : 								{
									"destination" : [ "obj-18", 0 ],
									"hidden" : 0,
									"midpoints" : [ 20.5, 147.0, 363.0, 147.0, 363.0, 111.0, 375.5, 111.0 ],
									"source" : [ "obj-38", 0 ]
								}

							}
, 							{
								"patchline" : 								{
									"destination" : [ "obj-41", 0 ],
									"hidden" : 0,
									"midpoints" : [  ],
									"source" : [ "obj-39", 0 ]
								}

							}
, 							{
								"patchline" : 								{
									"destination" : [ "obj-86", 0 ],
									"hidden" : 0,
									"midpoints" : [  ],
									"source" : [ "obj-40", 0 ]
								}

							}
, 							{
								"patchline" : 								{
									"destination" : [ "obj-37", 0 ],
									"hidden" : 0,
									"midpoints" : [  ],
									"source" : [ "obj-41", 0 ]
								}

							}
, 							{
								"patchline" : 								{
									"destination" : [ "obj-49", 0 ],
									"hidden" : 0,
									"midpoints" : [  ],
									"source" : [ "obj-48", 0 ]
								}

							}
, 							{
								"patchline" : 								{
									"destination" : [ "obj-75", 0 ],
									"hidden" : 0,
									"midpoints" : [ 449.5, 369.5, 119.5, 369.5 ],
									"source" : [ "obj-49", 0 ]
								}

							}
, 							{
								"patchline" : 								{
									"destination" : [ "obj-48", 0 ],
									"hidden" : 0,
									"midpoints" : [  ],
									"source" : [ "obj-50", 0 ]
								}

							}
, 							{
								"patchline" : 								{
									"destination" : [ "obj-52", 0 ],
									"hidden" : 0,
									"midpoints" : [  ],
									"source" : [ "obj-51", 0 ]
								}

							}
, 							{
								"patchline" : 								{
									"destination" : [ "obj-75", 0 ],
									"hidden" : 0,
									"midpoints" : [ 284.5, 369.5, 119.5, 369.5 ],
									"source" : [ "obj-52", 0 ]
								}

							}
, 							{
								"patchline" : 								{
									"destination" : [ "obj-51", 0 ],
									"hidden" : 0,
									"midpoints" : [  ],
									"source" : [ "obj-57", 0 ]
								}

							}
, 							{
								"patchline" : 								{
									"destination" : [ "obj-60", 0 ],
									"hidden" : 0,
									"midpoints" : [  ],
									"source" : [ "obj-59", 0 ]
								}

							}
, 							{
								"patchline" : 								{
									"destination" : [ "obj-75", 0 ],
									"hidden" : 0,
									"midpoints" : [  ],
									"source" : [ "obj-60", 0 ]
								}

							}
, 							{
								"patchline" : 								{
									"destination" : [ "obj-59", 0 ],
									"hidden" : 0,
									"midpoints" : [  ],
									"source" : [ "obj-61", 0 ]
								}

							}
, 							{
								"patchline" : 								{
									"destination" : [ "obj-63", 0 ],
									"hidden" : 0,
									"midpoints" : [  ],
									"source" : [ "obj-62", 0 ]
								}

							}
, 							{
								"patchline" : 								{
									"destination" : [ "obj-75", 0 ],
									"hidden" : 0,
									"midpoints" : [ 21.5, 369.5, 119.5, 369.5 ],
									"source" : [ "obj-63", 0 ]
								}

							}
, 							{
								"patchline" : 								{
									"destination" : [ "obj-62", 0 ],
									"hidden" : 0,
									"midpoints" : [  ],
									"source" : [ "obj-66", 0 ]
								}

							}
, 							{
								"patchline" : 								{
									"destination" : [ "obj-50", 0 ],
									"hidden" : 0,
									"midpoints" : [ 132.699997, 257.0, 449.5, 257.0 ],
									"source" : [ "obj-67", 4 ]
								}

							}
, 							{
								"patchline" : 								{
									"destination" : [ "obj-57", 0 ],
									"hidden" : 0,
									"midpoints" : [ 104.900002, 257.0, 284.5, 257.0 ],
									"source" : [ "obj-67", 3 ]
								}

							}
, 							{
								"patchline" : 								{
									"destination" : [ "obj-61", 0 ],
									"hidden" : 0,
									"midpoints" : [ 77.099998, 257.0, 119.5, 257.0 ],
									"source" : [ "obj-67", 2 ]
								}

							}
, 							{
								"patchline" : 								{
									"destination" : [ "obj-66", 0 ],
									"hidden" : 0,
									"midpoints" : [ 49.299999, 257.0, 21.5, 257.0 ],
									"source" : [ "obj-67", 1 ]
								}

							}
, 							{
								"patchline" : 								{
									"destination" : [ "obj-84", 0 ],
									"hidden" : 0,
									"midpoints" : [  ],
									"source" : [ "obj-81", 0 ]
								}

							}
, 							{
								"patchline" : 								{
									"destination" : [ "obj-86", 1 ],
									"hidden" : 0,
									"midpoints" : [ 614.5, 194.5, 523.5, 194.5 ],
									"source" : [ "obj-83", 0 ]
								}

							}
, 							{
								"patchline" : 								{
									"destination" : [ "obj-85", 1 ],
									"hidden" : 0,
									"midpoints" : [ 514.5, 137.5, 526.5, 137.5 ],
									"source" : [ "obj-84", 1 ]
								}

							}
, 							{
								"patchline" : 								{
									"destination" : [ "obj-85", 0 ],
									"hidden" : 0,
									"midpoints" : [  ],
									"source" : [ "obj-84", 0 ]
								}

							}
, 							{
								"patchline" : 								{
									"destination" : [ "obj-40", 0 ],
									"hidden" : 0,
									"midpoints" : [  ],
									"source" : [ "obj-85", 0 ]
								}

							}
, 							{
								"patchline" : 								{
									"destination" : [ "obj-83", 0 ],
									"hidden" : 0,
									"midpoints" : [ 526.5, 164.5, 614.5, 164.5 ],
									"source" : [ "obj-85", 1 ]
								}

							}
, 							{
								"patchline" : 								{
									"destination" : [ "obj-82", 0 ],
									"hidden" : 0,
									"midpoints" : [ 492.5, 228.0, 777.0, 228.0, 777.0, 111.0, 828.0, 111.0, 828.0, 111.0, 840.5, 111.0 ],
									"source" : [ "obj-86", 0 ]
								}

							}
, 							{
								"patchline" : 								{
									"destination" : [ "obj-88", 0 ],
									"hidden" : 0,
									"midpoints" : [  ],
									"source" : [ "obj-87", 0 ]
								}

							}
, 							{
								"patchline" : 								{
									"destination" : [ "obj-81", 0 ],
									"hidden" : 0,
									"midpoints" : [  ],
									"source" : [ "obj-88", 0 ]
								}

							}
, 							{
								"patchline" : 								{
									"destination" : [ "obj-67", 0 ],
									"hidden" : 0,
									"midpoints" : [  ],
									"source" : [ "obj-89", 0 ]
								}

							}
 ]
					}
,
					"patching_rect" : [ 11.0, 275.0, 62.0, 23.0 ],
					"saved_object_attributes" : 					{
						"default_fontface" : 0,
						"default_fontname" : "Arial",
						"fontname" : "Arial",
						"default_fontsize" : 14.0,
						"globalpatchername" : "",
						"fontface" : 0,
						"fontsize" : 14.0
					}
,
					"text" : "p part_3"
				}

			}
, 			{
				"box" : 				{
					"fontname" : "Arial",
					"fontsize" : 14.0,
					"id" : "obj-95",
					"maxclass" : "newobj",
					"numinlets" : 0,
					"numoutlets" : 0,
					"patcher" : 					{
						"fileversion" : 1,
						"appversion" : 						{
							"major" : 5,
							"minor" : 1,
							"revision" : 9
						}
,
						"rect" : [ -1.0, 44.0, 477.0, 553.0 ],
						"bglocked" : 0,
						"defrect" : [ -1.0, 44.0, 477.0, 553.0 ],
						"openrect" : [ 0.0, 0.0, 0.0, 0.0 ],
						"openinpresentation" : 0,
						"default_fontsize" : 14.0,
						"default_fontface" : 0,
						"default_fontname" : "Arial",
						"gridonopen" : 0,
						"gridsize" : [ 15.0, 15.0 ],
						"gridsnaponopen" : 0,
						"toolbarvisible" : 1,
						"boxanimatetime" : 200,
						"imprint" : 0,
						"enablehscroll" : 1,
						"enablevscroll" : 1,
						"devicewidth" : 0.0,
						"boxes" : [ 							{
								"box" : 								{
									"fontname" : "Arial",
									"fontsize" : 12.0,
									"id" : "obj-76",
									"maxclass" : "comment",
									"numinlets" : 1,
									"numoutlets" : 0,
									"patching_rect" : [ 106.0, 440.0, 135.0, 20.0 ],
									"text" : "Split range re-mapping "
								}

							}
, 							{
								"box" : 								{
									"id" : "obj-69",
									"maxclass" : "multislider",
									"numinlets" : 1,
									"numoutlets" : 2,
									"outlettype" : [ "", "" ],
									"patching_rect" : [ 370.0, 467.5, 77.0, 74.0 ],
									"setminmax" : [ 0.0, 1.0 ],
									"setstyle" : 2
								}

							}
, 							{
								"box" : 								{
									"fontname" : "Arial",
									"fontsize" : 12.0,
									"id" : "obj-68",
									"maxclass" : "newobj",
									"numinlets" : 1,
									"numoutlets" : 1,
									"outlettype" : [ "" ],
									"patcher" : 									{
										"fileversion" : 1,
										"appversion" : 										{
											"major" : 5,
											"minor" : 1,
											"revision" : 9
										}
,
										"rect" : [ 0.0, 0.0, 640.0, 480.0 ],
										"bglocked" : 0,
										"defrect" : [ 0.0, 0.0, 640.0, 480.0 ],
										"openrect" : [ 0.0, 0.0, 0.0, 0.0 ],
										"openinpresentation" : 0,
										"default_fontsize" : 12.0,
										"default_fontface" : 0,
										"default_fontname" : "Arial",
										"gridonopen" : 0,
										"gridsize" : [ 15.0, 15.0 ],
										"gridsnaponopen" : 0,
										"toolbarvisible" : 1,
										"boxanimatetime" : 200,
										"imprint" : 0,
										"enablehscroll" : 1,
										"enablevscroll" : 1,
										"devicewidth" : 0.0,
										"boxes" : [ 											{
												"box" : 												{
													"fontname" : "Arial",
													"fontsize" : 12.0,
													"id" : "obj-30",
													"maxclass" : "newobj",
													"numinlets" : 2,
													"numoutlets" : 1,
													"outlettype" : [ "float" ],
													"patching_rect" : [ 485.0, 175.0, 53.0, 20.0 ],
													"text" : "pow 0.1"
												}

											}
, 											{
												"box" : 												{
													"fontname" : "Arial",
													"fontsize" : 12.0,
													"id" : "obj-40",
													"maxclass" : "newobj",
													"numinlets" : 5,
													"numoutlets" : 1,
													"outlettype" : [ "" ],
													"patching_rect" : [ 485.0, 205.0, 90.0, 20.0 ],
													"text" : "zmap 0 1 0.8 1"
												}

											}
, 											{
												"box" : 												{
													"fontname" : "Arial",
													"fontsize" : 12.0,
													"id" : "obj-46",
													"maxclass" : "newobj",
													"numinlets" : 5,
													"numoutlets" : 1,
													"outlettype" : [ "" ],
													"patching_rect" : [ 485.0, 145.0, 90.0, 20.0 ],
													"text" : "zmap 0.8 1 0 1"
												}

											}
, 											{
												"box" : 												{
													"fontname" : "Arial",
													"fontsize" : 12.0,
													"id" : "obj-48",
													"maxclass" : "newobj",
													"numinlets" : 1,
													"numoutlets" : 1,
													"outlettype" : [ "float" ],
													"patching_rect" : [ 320.0, 175.0, 34.0, 20.0 ],
													"text" : "atan"
												}

											}
, 											{
												"box" : 												{
													"fontname" : "Arial",
													"fontsize" : 12.0,
													"id" : "obj-49",
													"maxclass" : "newobj",
													"numinlets" : 5,
													"numoutlets" : 1,
													"outlettype" : [ "" ],
													"patching_rect" : [ 320.0, 205.0, 143.0, 20.0 ],
													"text" : "zmap 0 0.785398 0.6 0.8"
												}

											}
, 											{
												"box" : 												{
													"fontname" : "Arial",
													"fontsize" : 12.0,
													"id" : "obj-51",
													"maxclass" : "newobj",
													"numinlets" : 5,
													"numoutlets" : 1,
													"outlettype" : [ "" ],
													"patching_rect" : [ 320.0, 145.0, 100.0, 20.0 ],
													"text" : "zmap 0.6 0.8 0 1"
												}

											}
, 											{
												"box" : 												{
													"fontname" : "Arial",
													"fontsize" : 12.0,
													"id" : "obj-52",
													"maxclass" : "newobj",
													"numinlets" : 1,
													"numoutlets" : 1,
													"outlettype" : [ "float" ],
													"patching_rect" : [ 155.0, 175.0, 26.0, 20.0 ],
													"text" : "sin"
												}

											}
, 											{
												"box" : 												{
													"fontname" : "Arial",
													"fontsize" : 12.0,
													"id" : "obj-57",
													"maxclass" : "newobj",
													"numinlets" : 5,
													"numoutlets" : 1,
													"outlettype" : [ "" ],
													"patching_rect" : [ 155.0, 205.0, 100.0, 20.0 ],
													"text" : "zmap 0 1 0.3 0.6"
												}

											}
, 											{
												"box" : 												{
													"fontname" : "Arial",
													"fontsize" : 12.0,
													"id" : "obj-59",
													"maxclass" : "newobj",
													"numinlets" : 5,
													"numoutlets" : 1,
													"outlettype" : [ "" ],
													"patching_rect" : [ 155.0, 145.0, 143.0, 20.0 ],
													"text" : "zmap 0.3 0.6 0 1.570796"
												}

											}
, 											{
												"box" : 												{
													"fontname" : "Arial",
													"fontsize" : 12.0,
													"id" : "obj-60",
													"maxclass" : "newobj",
													"numinlets" : 2,
													"numoutlets" : 1,
													"outlettype" : [ "float" ],
													"patching_rect" : [ 50.0, 175.0, 49.0, 20.0 ],
													"text" : "pow 10"
												}

											}
, 											{
												"box" : 												{
													"fontname" : "Arial",
													"fontsize" : 12.0,
													"id" : "obj-61",
													"maxclass" : "newobj",
													"numinlets" : 5,
													"numoutlets" : 1,
													"outlettype" : [ "" ],
													"patching_rect" : [ 50.0, 205.0, 90.0, 20.0 ],
													"text" : "zmap 0 1 0 0.3"
												}

											}
, 											{
												"box" : 												{
													"fontname" : "Arial",
													"fontsize" : 12.0,
													"id" : "obj-62",
													"maxclass" : "newobj",
													"numinlets" : 5,
													"numoutlets" : 1,
													"outlettype" : [ "" ],
													"patching_rect" : [ 50.0, 145.0, 90.0, 20.0 ],
													"text" : "zmap 0 0.3 0 1"
												}

											}
, 											{
												"box" : 												{
													"fontname" : "Arial",
													"fontsize" : 12.0,
													"id" : "obj-63",
													"maxclass" : "newobj",
													"numinlets" : 6,
													"numoutlets" : 6,
													"outlettype" : [ "float", "float", "float", "float", "float", "float" ],
													"patching_rect" : [ 200.0, 100.0, 158.0, 20.0 ],
													"text" : "sadam.split 0. 0.3 0.6 0.8 1."
												}

											}
, 											{
												"box" : 												{
													"comment" : "",
													"id" : "obj-66",
													"maxclass" : "inlet",
													"numinlets" : 0,
													"numoutlets" : 1,
													"outlettype" : [ "" ],
													"patching_rect" : [ 200.0, 40.0, 25.0, 25.0 ]
												}

											}
, 											{
												"box" : 												{
													"comment" : "",
													"id" : "obj-67",
													"maxclass" : "outlet",
													"numinlets" : 1,
													"numoutlets" : 0,
													"patching_rect" : [ 247.5, 285.0, 25.0, 25.0 ]
												}

											}
 ],
										"lines" : [ 											{
												"patchline" : 												{
													"destination" : [ "obj-40", 0 ],
													"hidden" : 0,
													"midpoints" : [  ],
													"source" : [ "obj-30", 0 ]
												}

											}
, 											{
												"patchline" : 												{
													"destination" : [ "obj-67", 0 ],
													"hidden" : 0,
													"midpoints" : [  ],
													"source" : [ "obj-40", 0 ]
												}

											}
, 											{
												"patchline" : 												{
													"destination" : [ "obj-30", 0 ],
													"hidden" : 0,
													"midpoints" : [  ],
													"source" : [ "obj-46", 0 ]
												}

											}
, 											{
												"patchline" : 												{
													"destination" : [ "obj-49", 0 ],
													"hidden" : 0,
													"midpoints" : [  ],
													"source" : [ "obj-48", 0 ]
												}

											}
, 											{
												"patchline" : 												{
													"destination" : [ "obj-67", 0 ],
													"hidden" : 0,
													"midpoints" : [  ],
													"source" : [ "obj-49", 0 ]
												}

											}
, 											{
												"patchline" : 												{
													"destination" : [ "obj-48", 0 ],
													"hidden" : 0,
													"midpoints" : [  ],
													"source" : [ "obj-51", 0 ]
												}

											}
, 											{
												"patchline" : 												{
													"destination" : [ "obj-57", 0 ],
													"hidden" : 0,
													"midpoints" : [  ],
													"source" : [ "obj-52", 0 ]
												}

											}
, 											{
												"patchline" : 												{
													"destination" : [ "obj-67", 0 ],
													"hidden" : 0,
													"midpoints" : [  ],
													"source" : [ "obj-57", 0 ]
												}

											}
, 											{
												"patchline" : 												{
													"destination" : [ "obj-52", 0 ],
													"hidden" : 0,
													"midpoints" : [  ],
													"source" : [ "obj-59", 0 ]
												}

											}
, 											{
												"patchline" : 												{
													"destination" : [ "obj-61", 0 ],
													"hidden" : 0,
													"midpoints" : [  ],
													"source" : [ "obj-60", 0 ]
												}

											}
, 											{
												"patchline" : 												{
													"destination" : [ "obj-67", 0 ],
													"hidden" : 0,
													"midpoints" : [  ],
													"source" : [ "obj-61", 0 ]
												}

											}
, 											{
												"patchline" : 												{
													"destination" : [ "obj-60", 0 ],
													"hidden" : 0,
													"midpoints" : [  ],
													"source" : [ "obj-62", 0 ]
												}

											}
, 											{
												"patchline" : 												{
													"destination" : [ "obj-46", 0 ],
													"hidden" : 0,
													"midpoints" : [  ],
													"source" : [ "obj-63", 4 ]
												}

											}
, 											{
												"patchline" : 												{
													"destination" : [ "obj-51", 0 ],
													"hidden" : 0,
													"midpoints" : [  ],
													"source" : [ "obj-63", 3 ]
												}

											}
, 											{
												"patchline" : 												{
													"destination" : [ "obj-59", 0 ],
													"hidden" : 0,
													"midpoints" : [  ],
													"source" : [ "obj-63", 2 ]
												}

											}
, 											{
												"patchline" : 												{
													"destination" : [ "obj-62", 0 ],
													"hidden" : 0,
													"midpoints" : [  ],
													"source" : [ "obj-63", 1 ]
												}

											}
, 											{
												"patchline" : 												{
													"destination" : [ "obj-63", 0 ],
													"hidden" : 0,
													"midpoints" : [  ],
													"source" : [ "obj-66", 0 ]
												}

											}
 ]
									}
,
									"patching_rect" : [ 22.0, 440.0, 66.0, 20.0 ],
									"saved_object_attributes" : 									{
										"default_fontface" : 0,
										"default_fontname" : "Arial",
										"fontname" : "Arial",
										"default_fontsize" : 12.0,
										"globalpatchername" : "",
										"fontface" : 0,
										"fontsize" : 12.0
									}
,
									"text" : "p"
								}

							}
, 							{
								"box" : 								{
									"floatoutput" : 1,
									"id" : "obj-64",
									"maxclass" : "slider",
									"numinlets" : 1,
									"numoutlets" : 1,
									"outlettype" : [ "" ],
									"patching_rect" : [ 22.0, 467.5, 332.0, 21.0 ],
									"size" : 1.0
								}

							}
, 							{
								"box" : 								{
									"fontname" : "Arial",
									"fontsize" : 12.0,
									"id" : "obj-65",
									"maxclass" : "newobj",
									"numinlets" : 0,
									"numoutlets" : 1,
									"outlettype" : [ "" ],
									"patching_rect" : [ 22.0, 407.0, 55.0, 20.0 ],
									"text" : "r master"
								}

							}
, 							{
								"box" : 								{
									"id" : "obj-70",
									"maxclass" : "multislider",
									"numinlets" : 1,
									"numoutlets" : 2,
									"outlettype" : [ "", "" ],
									"patching_rect" : [ 370.0, 328.0, 77.0, 74.0 ],
									"setminmax" : [ 0.0, 1.0 ],
									"setstyle" : 2
								}

							}
, 							{
								"box" : 								{
									"fontname" : "Arial",
									"fontsize" : 12.0,
									"id" : "obj-71",
									"maxclass" : "comment",
									"numinlets" : 1,
									"numoutlets" : 0,
									"patching_rect" : [ 106.0, 257.0, 118.0, 20.0 ],
									"text" : "Sinusoidal envelope"
								}

							}
, 							{
								"box" : 								{
									"floatoutput" : 1,
									"id" : "obj-72",
									"maxclass" : "slider",
									"numinlets" : 1,
									"numoutlets" : 1,
									"outlettype" : [ "" ],
									"patching_rect" : [ 15.0, 328.0, 332.0, 21.0 ],
									"size" : 1.0
								}

							}
, 							{
								"box" : 								{
									"fontname" : "Arial",
									"fontsize" : 12.0,
									"id" : "obj-73",
									"maxclass" : "newobj",
									"numinlets" : 0,
									"numoutlets" : 1,
									"outlettype" : [ "" ],
									"patching_rect" : [ 15.0, 257.0, 55.0, 20.0 ],
									"text" : "r master"
								}

							}
, 							{
								"box" : 								{
									"fontname" : "Arial",
									"fontsize" : 12.0,
									"id" : "obj-74",
									"maxclass" : "newobj",
									"numinlets" : 1,
									"numoutlets" : 1,
									"outlettype" : [ "" ],
									"patching_rect" : [ 15.0, 289.0, 214.0, 20.0 ],
									"text" : "expr 0.5*sin(($f1-0.5)*(3.141592))+0.5"
								}

							}
, 							{
								"box" : 								{
									"id" : "obj-53",
									"maxclass" : "multislider",
									"numinlets" : 1,
									"numoutlets" : 2,
									"outlettype" : [ "", "" ],
									"patching_rect" : [ 370.0, 209.0, 77.0, 74.0 ],
									"setminmax" : [ 0.0, 1.0 ],
									"setstyle" : 2
								}

							}
, 							{
								"box" : 								{
									"fontname" : "Arial",
									"fontsize" : 12.0,
									"id" : "obj-54",
									"maxclass" : "newobj",
									"numinlets" : 1,
									"numoutlets" : 1,
									"outlettype" : [ "" ],
									"patching_rect" : [ 15.0, 182.0, 112.0, 20.0 ],
									"text" : "expr pow($f1\\,0.25)"
								}

							}
, 							{
								"box" : 								{
									"fontname" : "Arial",
									"fontsize" : 12.0,
									"id" : "obj-55",
									"maxclass" : "comment",
									"numinlets" : 1,
									"numoutlets" : 0,
									"patching_rect" : [ 106.0, 125.0, 121.0, 20.0 ],
									"text" : "Fourth root envelope"
								}

							}
, 							{
								"box" : 								{
									"floatoutput" : 1,
									"id" : "obj-56",
									"maxclass" : "slider",
									"numinlets" : 1,
									"numoutlets" : 1,
									"outlettype" : [ "" ],
									"patching_rect" : [ 15.0, 209.0, 332.0, 21.0 ],
									"size" : 1.0
								}

							}
, 							{
								"box" : 								{
									"fontname" : "Arial",
									"fontsize" : 12.0,
									"id" : "obj-58",
									"maxclass" : "newobj",
									"numinlets" : 0,
									"numoutlets" : 1,
									"outlettype" : [ "" ],
									"patching_rect" : [ 15.0, 125.0, 55.0, 20.0 ],
									"text" : "r master"
								}

							}
, 							{
								"box" : 								{
									"id" : "obj-32",
									"maxclass" : "multislider",
									"numinlets" : 1,
									"numoutlets" : 2,
									"outlettype" : [ "", "" ],
									"patching_rect" : [ 370.0, 65.0, 77.0, 74.0 ],
									"setminmax" : [ 0.0, 1.0 ],
									"setstyle" : 2
								}

							}
, 							{
								"box" : 								{
									"fontname" : "Arial",
									"fontsize" : 12.0,
									"id" : "obj-33",
									"maxclass" : "newobj",
									"numinlets" : 1,
									"numoutlets" : 1,
									"outlettype" : [ "" ],
									"patching_rect" : [ 15.0, 38.0, 105.0, 20.0 ],
									"text" : "expr pow($f1\\,0.5)"
								}

							}
, 							{
								"box" : 								{
									"fontname" : "Arial",
									"fontsize" : 12.0,
									"id" : "obj-34",
									"maxclass" : "comment",
									"numinlets" : 1,
									"numoutlets" : 0,
									"patching_rect" : [ 106.0, 9.0, 125.0, 20.0 ],
									"text" : "Square root envelope"
								}

							}
, 							{
								"box" : 								{
									"floatoutput" : 1,
									"id" : "obj-35",
									"maxclass" : "slider",
									"numinlets" : 1,
									"numoutlets" : 1,
									"outlettype" : [ "" ],
									"patching_rect" : [ 15.0, 65.0, 332.0, 21.0 ],
									"size" : 1.0
								}

							}
, 							{
								"box" : 								{
									"fontname" : "Arial",
									"fontsize" : 12.0,
									"id" : "obj-42",
									"maxclass" : "newobj",
									"numinlets" : 0,
									"numoutlets" : 1,
									"outlettype" : [ "" ],
									"patching_rect" : [ 15.0, 9.0, 55.0, 20.0 ],
									"text" : "r master"
								}

							}
 ],
						"lines" : [ 							{
								"patchline" : 								{
									"destination" : [ "obj-35", 0 ],
									"hidden" : 0,
									"midpoints" : [  ],
									"source" : [ "obj-33", 0 ]
								}

							}
, 							{
								"patchline" : 								{
									"destination" : [ "obj-32", 0 ],
									"hidden" : 0,
									"midpoints" : [ 24.5, 96.0, 367.0, 96.0, 367.0, 60.0, 379.5, 60.0 ],
									"source" : [ "obj-35", 0 ]
								}

							}
, 							{
								"patchline" : 								{
									"destination" : [ "obj-33", 0 ],
									"hidden" : 0,
									"midpoints" : [  ],
									"source" : [ "obj-42", 0 ]
								}

							}
, 							{
								"patchline" : 								{
									"destination" : [ "obj-56", 0 ],
									"hidden" : 0,
									"midpoints" : [  ],
									"source" : [ "obj-54", 0 ]
								}

							}
, 							{
								"patchline" : 								{
									"destination" : [ "obj-53", 0 ],
									"hidden" : 0,
									"midpoints" : [ 24.5, 240.0, 367.0, 240.0, 367.0, 204.0, 379.5, 204.0 ],
									"source" : [ "obj-56", 0 ]
								}

							}
, 							{
								"patchline" : 								{
									"destination" : [ "obj-54", 0 ],
									"hidden" : 0,
									"midpoints" : [  ],
									"source" : [ "obj-58", 0 ]
								}

							}
, 							{
								"patchline" : 								{
									"destination" : [ "obj-69", 0 ],
									"hidden" : 0,
									"midpoints" : [ 31.5, 499.0, 365.0, 499.0, 365.0, 463.0, 379.5, 463.0 ],
									"source" : [ "obj-64", 0 ]
								}

							}
, 							{
								"patchline" : 								{
									"destination" : [ "obj-68", 0 ],
									"hidden" : 0,
									"midpoints" : [  ],
									"source" : [ "obj-65", 0 ]
								}

							}
, 							{
								"patchline" : 								{
									"destination" : [ "obj-64", 0 ],
									"hidden" : 0,
									"midpoints" : [  ],
									"source" : [ "obj-68", 0 ]
								}

							}
, 							{
								"patchline" : 								{
									"destination" : [ "obj-70", 0 ],
									"hidden" : 0,
									"midpoints" : [ 24.5, 360.0, 367.0, 360.0, 367.0, 324.0, 379.5, 324.0 ],
									"source" : [ "obj-72", 0 ]
								}

							}
, 							{
								"patchline" : 								{
									"destination" : [ "obj-74", 0 ],
									"hidden" : 0,
									"midpoints" : [  ],
									"source" : [ "obj-73", 0 ]
								}

							}
, 							{
								"patchline" : 								{
									"destination" : [ "obj-72", 0 ],
									"hidden" : 0,
									"midpoints" : [  ],
									"source" : [ "obj-74", 0 ]
								}

							}
 ]
					}
,
					"patching_rect" : [ 11.0, 248.0, 62.0, 23.0 ],
					"saved_object_attributes" : 					{
						"default_fontface" : 0,
						"default_fontname" : "Arial",
						"fontname" : "Arial",
						"default_fontsize" : 14.0,
						"globalpatchername" : "",
						"fontface" : 0,
						"fontsize" : 14.0
					}
,
					"text" : "p part_2"
				}

			}
, 			{
				"box" : 				{
					"fontname" : "Arial",
					"fontsize" : 14.0,
					"id" : "obj-30",
					"maxclass" : "newobj",
					"numinlets" : 0,
					"numoutlets" : 0,
					"patcher" : 					{
						"fileversion" : 1,
						"appversion" : 						{
							"major" : 5,
							"minor" : 1,
							"revision" : 9
						}
,
						"rect" : [ 1.0, 44.0, 466.0, 542.0 ],
						"bglocked" : 0,
						"defrect" : [ 1.0, 44.0, 466.0, 542.0 ],
						"openrect" : [ 0.0, 0.0, 0.0, 0.0 ],
						"openinpresentation" : 0,
						"default_fontsize" : 14.0,
						"default_fontface" : 0,
						"default_fontname" : "Arial",
						"gridonopen" : 0,
						"gridsize" : [ 15.0, 15.0 ],
						"gridsnaponopen" : 0,
						"toolbarvisible" : 1,
						"boxanimatetime" : 200,
						"imprint" : 0,
						"enablehscroll" : 1,
						"enablevscroll" : 1,
						"devicewidth" : 0.0,
						"boxes" : [ 							{
								"box" : 								{
									"id" : "obj-17",
									"maxclass" : "multislider",
									"numinlets" : 1,
									"numoutlets" : 2,
									"outlettype" : [ "", "" ],
									"patching_rect" : [ 373.0, 453.0, 77.0, 74.0 ],
									"setminmax" : [ 0.0, 1.0 ],
									"setstyle" : 2
								}

							}
, 							{
								"box" : 								{
									"id" : "obj-10",
									"maxclass" : "multislider",
									"numinlets" : 1,
									"numoutlets" : 2,
									"outlettype" : [ "", "" ],
									"patching_rect" : [ 373.0, 330.0, 77.0, 74.0 ],
									"setminmax" : [ 0.0, 1.0 ],
									"setstyle" : 2
								}

							}
, 							{
								"box" : 								{
									"id" : "obj-5",
									"maxclass" : "multislider",
									"numinlets" : 1,
									"numoutlets" : 2,
									"outlettype" : [ "", "" ],
									"patching_rect" : [ 373.0, 211.0, 77.0, 74.0 ],
									"setminmax" : [ 0.0, 1.0 ],
									"setstyle" : 2
								}

							}
, 							{
								"box" : 								{
									"id" : "obj-2",
									"maxclass" : "multislider",
									"numinlets" : 1,
									"numoutlets" : 2,
									"outlettype" : [ "", "" ],
									"patching_rect" : [ 373.0, 67.0, 77.0, 74.0 ],
									"setminmax" : [ 0.0, 1.0 ],
									"setstyle" : 2
								}

							}
, 							{
								"box" : 								{
									"fontname" : "Arial",
									"fontsize" : 12.0,
									"id" : "obj-28",
									"maxclass" : "comment",
									"numinlets" : 1,
									"numoutlets" : 0,
									"patching_rect" : [ 109.0, 382.0, 41.0, 20.0 ],
									"text" : "Invert"
								}

							}
, 							{
								"box" : 								{
									"fontname" : "Arial",
									"fontsize" : 12.0,
									"id" : "obj-27",
									"maxclass" : "newobj",
									"numinlets" : 2,
									"numoutlets" : 1,
									"outlettype" : [ "float" ],
									"patching_rect" : [ 18.0, 417.0, 32.5, 20.0 ],
									"text" : "!- 1."
								}

							}
, 							{
								"box" : 								{
									"floatoutput" : 1,
									"id" : "obj-24",
									"maxclass" : "slider",
									"numinlets" : 1,
									"numoutlets" : 1,
									"outlettype" : [ "" ],
									"patching_rect" : [ 18.0, 453.0, 332.0, 21.0 ],
									"size" : 1.0
								}

							}
, 							{
								"box" : 								{
									"fontname" : "Arial",
									"fontsize" : 12.0,
									"id" : "obj-25",
									"maxclass" : "newobj",
									"numinlets" : 0,
									"numoutlets" : 1,
									"outlettype" : [ "" ],
									"patching_rect" : [ 18.0, 382.0, 55.0, 20.0 ],
									"text" : "r master"
								}

							}
, 							{
								"box" : 								{
									"fontname" : "Arial",
									"fontsize" : 12.0,
									"id" : "obj-23",
									"maxclass" : "comment",
									"numinlets" : 1,
									"numoutlets" : 0,
									"patching_rect" : [ 109.0, 259.0, 58.0, 20.0 ],
									"text" : "Re-scale"
								}

							}
, 							{
								"box" : 								{
									"floatoutput" : 1,
									"id" : "obj-22",
									"maxclass" : "slider",
									"numinlets" : 1,
									"numoutlets" : 1,
									"outlettype" : [ "" ],
									"patching_rect" : [ 18.0, 330.0, 332.0, 21.0 ],
									"size" : 1.0
								}

							}
, 							{
								"box" : 								{
									"fontname" : "Arial",
									"fontsize" : 12.0,
									"id" : "obj-21",
									"maxclass" : "newobj",
									"numinlets" : 0,
									"numoutlets" : 1,
									"outlettype" : [ "" ],
									"patching_rect" : [ 18.0, 259.0, 55.0, 20.0 ],
									"text" : "r master"
								}

							}
, 							{
								"box" : 								{
									"fontname" : "Arial",
									"fontsize" : 12.0,
									"id" : "obj-20",
									"maxclass" : "newobj",
									"numinlets" : 6,
									"numoutlets" : 1,
									"outlettype" : [ "" ],
									"patching_rect" : [ 18.0, 291.0, 99.0, 20.0 ],
									"text" : "scale 0. 1. 0. 0.5"
								}

							}
, 							{
								"box" : 								{
									"fontname" : "Arial",
									"fontsize" : 12.0,
									"id" : "obj-16",
									"maxclass" : "newobj",
									"numinlets" : 2,
									"numoutlets" : 1,
									"outlettype" : [ "float" ],
									"patching_rect" : [ 18.0, 184.0, 32.5, 20.0 ],
									"text" : "* 0."
								}

							}
, 							{
								"box" : 								{
									"fontname" : "Arial",
									"fontsize" : 12.0,
									"id" : "obj-12",
									"maxclass" : "comment",
									"numinlets" : 1,
									"numoutlets" : 0,
									"patching_rect" : [ 109.0, 127.0, 101.0, 20.0 ],
									"text" : "Quartic envelope"
								}

							}
, 							{
								"box" : 								{
									"floatoutput" : 1,
									"id" : "obj-13",
									"maxclass" : "slider",
									"numinlets" : 1,
									"numoutlets" : 1,
									"outlettype" : [ "" ],
									"patching_rect" : [ 18.0, 211.0, 332.0, 21.0 ],
									"size" : 1.0
								}

							}
, 							{
								"box" : 								{
									"fontname" : "Arial",
									"fontsize" : 12.0,
									"id" : "obj-14",
									"maxclass" : "newobj",
									"numinlets" : 2,
									"numoutlets" : 1,
									"outlettype" : [ "float" ],
									"patching_rect" : [ 18.0, 156.0, 32.5, 20.0 ],
									"text" : "* 0."
								}

							}
, 							{
								"box" : 								{
									"fontname" : "Arial",
									"fontsize" : 12.0,
									"id" : "obj-15",
									"maxclass" : "newobj",
									"numinlets" : 0,
									"numoutlets" : 1,
									"outlettype" : [ "" ],
									"patching_rect" : [ 18.0, 127.0, 55.0, 20.0 ],
									"text" : "r master"
								}

							}
, 							{
								"box" : 								{
									"fontname" : "Arial",
									"fontsize" : 12.0,
									"id" : "obj-11",
									"maxclass" : "comment",
									"numinlets" : 1,
									"numoutlets" : 0,
									"patching_rect" : [ 109.0, 11.0, 108.0, 20.0 ],
									"text" : "Squared envelope"
								}

							}
, 							{
								"box" : 								{
									"floatoutput" : 1,
									"id" : "obj-9",
									"maxclass" : "slider",
									"numinlets" : 1,
									"numoutlets" : 1,
									"outlettype" : [ "" ],
									"patching_rect" : [ 18.0, 67.0, 332.0, 21.0 ],
									"size" : 1.0
								}

							}
, 							{
								"box" : 								{
									"fontname" : "Arial",
									"fontsize" : 12.0,
									"id" : "obj-8",
									"maxclass" : "newobj",
									"numinlets" : 2,
									"numoutlets" : 1,
									"outlettype" : [ "float" ],
									"patching_rect" : [ 18.0, 40.0, 32.5, 20.0 ],
									"text" : "* 0."
								}

							}
, 							{
								"box" : 								{
									"fontname" : "Arial",
									"fontsize" : 12.0,
									"id" : "obj-7",
									"maxclass" : "newobj",
									"numinlets" : 0,
									"numoutlets" : 1,
									"outlettype" : [ "" ],
									"patching_rect" : [ 18.0, 11.0, 55.0, 20.0 ],
									"text" : "r master"
								}

							}
 ],
						"lines" : [ 							{
								"patchline" : 								{
									"destination" : [ "obj-5", 0 ],
									"hidden" : 0,
									"midpoints" : [ 27.5, 242.0, 370.0, 242.0, 370.0, 206.0, 382.5, 206.0 ],
									"source" : [ "obj-13", 0 ]
								}

							}
, 							{
								"patchline" : 								{
									"destination" : [ "obj-16", 1 ],
									"hidden" : 0,
									"midpoints" : [  ],
									"source" : [ "obj-14", 0 ]
								}

							}
, 							{
								"patchline" : 								{
									"destination" : [ "obj-16", 0 ],
									"hidden" : 0,
									"midpoints" : [  ],
									"source" : [ "obj-14", 0 ]
								}

							}
, 							{
								"patchline" : 								{
									"destination" : [ "obj-14", 1 ],
									"hidden" : 0,
									"midpoints" : [  ],
									"source" : [ "obj-15", 0 ]
								}

							}
, 							{
								"patchline" : 								{
									"destination" : [ "obj-14", 0 ],
									"hidden" : 0,
									"midpoints" : [  ],
									"source" : [ "obj-15", 0 ]
								}

							}
, 							{
								"patchline" : 								{
									"destination" : [ "obj-13", 0 ],
									"hidden" : 0,
									"midpoints" : [  ],
									"source" : [ "obj-16", 0 ]
								}

							}
, 							{
								"patchline" : 								{
									"destination" : [ "obj-22", 0 ],
									"hidden" : 0,
									"midpoints" : [  ],
									"source" : [ "obj-20", 0 ]
								}

							}
, 							{
								"patchline" : 								{
									"destination" : [ "obj-20", 0 ],
									"hidden" : 0,
									"midpoints" : [  ],
									"source" : [ "obj-21", 0 ]
								}

							}
, 							{
								"patchline" : 								{
									"destination" : [ "obj-10", 0 ],
									"hidden" : 0,
									"midpoints" : [ 27.5, 362.0, 370.0, 362.0, 370.0, 326.0, 382.5, 326.0 ],
									"source" : [ "obj-22", 0 ]
								}

							}
, 							{
								"patchline" : 								{
									"destination" : [ "obj-17", 0 ],
									"hidden" : 0,
									"midpoints" : [ 27.5, 485.0, 370.0, 485.0, 370.0, 449.0, 382.5, 449.0 ],
									"source" : [ "obj-24", 0 ]
								}

							}
, 							{
								"patchline" : 								{
									"destination" : [ "obj-27", 0 ],
									"hidden" : 0,
									"midpoints" : [  ],
									"source" : [ "obj-25", 0 ]
								}

							}
, 							{
								"patchline" : 								{
									"destination" : [ "obj-24", 0 ],
									"hidden" : 0,
									"midpoints" : [  ],
									"source" : [ "obj-27", 0 ]
								}

							}
, 							{
								"patchline" : 								{
									"destination" : [ "obj-8", 1 ],
									"hidden" : 0,
									"midpoints" : [  ],
									"source" : [ "obj-7", 0 ]
								}

							}
, 							{
								"patchline" : 								{
									"destination" : [ "obj-8", 0 ],
									"hidden" : 0,
									"midpoints" : [  ],
									"source" : [ "obj-7", 0 ]
								}

							}
, 							{
								"patchline" : 								{
									"destination" : [ "obj-9", 0 ],
									"hidden" : 0,
									"midpoints" : [  ],
									"source" : [ "obj-8", 0 ]
								}

							}
, 							{
								"patchline" : 								{
									"destination" : [ "obj-2", 0 ],
									"hidden" : 0,
									"midpoints" : [ 27.5, 98.0, 370.0, 98.0, 370.0, 62.0, 382.5, 62.0 ],
									"source" : [ "obj-9", 0 ]
								}

							}
 ]
					}
,
					"patching_rect" : [ 11.0, 219.0, 62.0, 23.0 ],
					"saved_object_attributes" : 					{
						"default_fontface" : 0,
						"default_fontname" : "Arial",
						"fontname" : "Arial",
						"default_fontsize" : 14.0,
						"globalpatchername" : "",
						"fontface" : 0,
						"fontsize" : 14.0
					}
,
					"text" : "p part_1"
				}

			}
, 			{
				"box" : 				{
					"fontname" : "Arial",
					"fontsize" : 14.0,
					"id" : "obj-46",
					"maxclass" : "comment",
					"numinlets" : 1,
					"numoutlets" : 0,
					"patching_rect" : [ 82.0, 275.0, 360.0, 23.0 ],
					"text" : "by Mark Durham, Luke Woodbury, Siska dm, EMV"
				}

			}
, 			{
				"box" : 				{
					"fontname" : "Arial",
					"fontsize" : 12.0,
					"id" : "obj-31",
					"maxclass" : "message",
					"numinlets" : 2,
					"numoutlets" : 1,
					"outlettype" : [ "" ],
					"patching_rect" : [ 18.0, 25.0, 61.0, 18.0 ],
					"text" : "0, 1 2500"
				}

			}
, 			{
				"box" : 				{
					"fontname" : "Arial",
					"fontsize" : 12.0,
					"id" : "obj-26",
					"maxclass" : "newobj",
					"numinlets" : 3,
					"numoutlets" : 2,
					"outlettype" : [ "", "" ],
					"patching_rect" : [ 18.0, 52.0, 53.0, 20.0 ],
					"text" : "line 0. 5"
				}

			}
, 			{
				"box" : 				{
					"id" : "obj-19",
					"maxclass" : "multislider",
					"numinlets" : 1,
					"numoutlets" : 2,
					"outlettype" : [ "", "" ],
					"patching_rect" : [ 828.0, 145.0, 77.0, 74.0 ],
					"setminmax" : [ 0.0, 1.0 ],
					"setstyle" : 2
				}

			}
, 			{
				"box" : 				{
					"fontname" : "Arial",
					"fontsize" : 12.0,
					"id" : "obj-47",
					"maxclass" : "comment",
					"numinlets" : 1,
					"numoutlets" : 0,
					"patching_rect" : [ 548.0, 6.0, 117.0, 20.0 ],
					"text" : "Graphically Re-map"
				}

			}
, 			{
				"box" : 				{
					"addpoints" : [ 0.0, 0.0, 0, 0.819149, 0.293333, 0, 1.0, 1.0, 0 ],
					"domain" : 1.0,
					"id" : "obj-45",
					"maxclass" : "function",
					"numinlets" : 1,
					"numoutlets" : 4,
					"outlettype" : [ "float", "", "", "bang" ],
					"patching_rect" : [ 476.0, 34.0, 200.0, 100.0 ]
				}

			}
, 			{
				"box" : 				{
					"floatoutput" : 1,
					"id" : "obj-44",
					"maxclass" : "slider",
					"numinlets" : 1,
					"numoutlets" : 1,
					"outlettype" : [ "" ],
					"patching_rect" : [ 476.0, 145.0, 332.0, 21.0 ],
					"size" : 1.0
				}

			}
, 			{
				"box" : 				{
					"fontname" : "Arial",
					"fontsize" : 12.0,
					"id" : "obj-43",
					"maxclass" : "newobj",
					"numinlets" : 0,
					"numoutlets" : 1,
					"outlettype" : [ "" ],
					"patching_rect" : [ 476.0, 6.0, 55.0, 20.0 ],
					"text" : "r master"
				}

			}
, 			{
				"box" : 				{
					"fontname" : "Arial",
					"fontsize" : 12.0,
					"id" : "obj-6",
					"maxclass" : "flonum",
					"numinlets" : 1,
					"numoutlets" : 2,
					"outlettype" : [ "float", "bang" ],
					"patching_rect" : [ 88.0, 132.0, 50.0, 20.0 ]
				}

			}
, 			{
				"box" : 				{
					"fontname" : "Arial",
					"fontsize" : 12.0,
					"id" : "obj-4",
					"maxclass" : "newobj",
					"numinlets" : 1,
					"numoutlets" : 0,
					"patching_rect" : [ 18.0, 132.0, 57.0, 20.0 ],
					"text" : "s master"
				}

			}
, 			{
				"box" : 				{
					"fontname" : "Arial",
					"fontsize" : 12.0,
					"id" : "obj-3",
					"maxclass" : "comment",
					"numinlets" : 1,
					"numoutlets" : 0,
					"patching_rect" : [ 83.0, 24.0, 101.0, 20.0 ],
					"text" : "Master - Linear"
				}

			}
, 			{
				"box" : 				{
					"floatoutput" : 1,
					"id" : "obj-1",
					"maxclass" : "slider",
					"numinlets" : 1,
					"numoutlets" : 1,
					"outlettype" : [ "" ],
					"patching_rect" : [ 18.0, 82.0, 332.0, 30.0 ],
					"size" : 1.0
				}

			}
, 			{
				"box" : 				{
					"background" : 1,
					"bgcolor" : [ 0.858824, 0.858824, 0.858824, 1.0 ],
					"id" : "obj-29",
					"maxclass" : "panel",
					"numinlets" : 1,
					"numoutlets" : 0,
					"patching_rect" : [ 11.5, 17.0, 344.0, 146.0 ]
				}

			}
 ],
		"lines" : [ 			{
				"patchline" : 				{
					"destination" : [ "obj-4", 0 ],
					"hidden" : 0,
					"midpoints" : [  ],
					"source" : [ "obj-1", 0 ]
				}

			}
, 			{
				"patchline" : 				{
					"destination" : [ "obj-6", 0 ],
					"hidden" : 0,
					"midpoints" : [  ],
					"source" : [ "obj-1", 0 ]
				}

			}
, 			{
				"patchline" : 				{
					"destination" : [ "obj-1", 0 ],
					"hidden" : 0,
					"midpoints" : [  ],
					"source" : [ "obj-26", 0 ]
				}

			}
, 			{
				"patchline" : 				{
					"destination" : [ "obj-26", 0 ],
					"hidden" : 0,
					"midpoints" : [ 27.5, 47.0, 27.5, 47.0 ],
					"source" : [ "obj-31", 0 ]
				}

			}
, 			{
				"patchline" : 				{
					"destination" : [ "obj-45", 0 ],
					"hidden" : 0,
					"midpoints" : [  ],
					"source" : [ "obj-43", 0 ]
				}

			}
, 			{
				"patchline" : 				{
					"destination" : [ "obj-19", 0 ],
					"hidden" : 0,
					"midpoints" : [ 485.5, 178.0, 825.0, 178.0, 825.0, 142.0, 837.5, 142.0 ],
					"source" : [ "obj-44", 0 ]
				}

			}
, 			{
				"patchline" : 				{
					"destination" : [ "obj-44", 0 ],
					"hidden" : 0,
					"midpoints" : [  ],
					"source" : [ "obj-45", 0 ]
				}

			}
 ]
	}

}
